<mxfile host="Electron" modified="2024-02-29T14:04:15.309Z" agent="Mozilla/5.0 (Windows NT 6.3; Win64; x64) AppleWebKit/537.36 (KHTML, like Gecko) draw.io/21.1.2 Chrome/106.0.5249.199 Electron/21.4.3 Safari/537.36" etag="lFg5KdLZnB73tPOlyvUr" version="21.1.2" type="device">
  <diagram name="Страница 1" id="1nTtm0_BMDjhct5yccOk">
    <mxGraphModel dx="1120" dy="769" grid="1" gridSize="10" guides="1" tooltips="1" connect="1" arrows="1" fold="1" page="1" pageScale="1" pageWidth="1169" pageHeight="827" math="0" shadow="0">
      <root>
        <mxCell id="0" />
        <mxCell id="1" parent="0" />
        <mxCell id="2ZtT-Da5C00QiOGOJkK9-30" value="" style="rounded=0;whiteSpace=wrap;html=1;fillColor=#fff2cc;strokeColor=#d6b656;dashed=1;" vertex="1" parent="1">
          <mxGeometry x="310" y="280" width="580" height="220" as="geometry" />
        </mxCell>
        <mxCell id="2ZtT-Da5C00QiOGOJkK9-25" value="" style="rounded=0;whiteSpace=wrap;html=1;fillColor=#fff2cc;strokeColor=#d6b656;dashed=1;" vertex="1" parent="1">
          <mxGeometry x="310" y="30" width="580" height="220" as="geometry" />
        </mxCell>
        <mxCell id="2ZtT-Da5C00QiOGOJkK9-3" value="" style="edgeStyle=orthogonalEdgeStyle;rounded=0;orthogonalLoop=1;jettySize=auto;html=1;" edge="1" parent="1" source="2ZtT-Da5C00QiOGOJkK9-1" target="2ZtT-Da5C00QiOGOJkK9-2">
          <mxGeometry relative="1" as="geometry" />
        </mxCell>
        <mxCell id="2ZtT-Da5C00QiOGOJkK9-22" value="" style="edgeStyle=orthogonalEdgeStyle;rounded=1;orthogonalLoop=1;jettySize=auto;html=1;" edge="1" parent="1" source="2ZtT-Da5C00QiOGOJkK9-1" target="2ZtT-Da5C00QiOGOJkK9-21">
          <mxGeometry relative="1" as="geometry" />
        </mxCell>
        <mxCell id="2ZtT-Da5C00QiOGOJkK9-1" value="Создание Laravel-проекта" style="rounded=1;whiteSpace=wrap;html=1;fillColor=#dae8fc;strokeColor=#6c8ebf;" vertex="1" parent="1">
          <mxGeometry x="507" y="50" width="155" height="20" as="geometry" />
        </mxCell>
        <mxCell id="2ZtT-Da5C00QiOGOJkK9-5" value="" style="edgeStyle=orthogonalEdgeStyle;rounded=1;orthogonalLoop=1;jettySize=auto;html=1;exitX=0.75;exitY=1;exitDx=0;exitDy=0;" edge="1" parent="1" source="2ZtT-Da5C00QiOGOJkK9-2" target="2ZtT-Da5C00QiOGOJkK9-4">
          <mxGeometry relative="1" as="geometry">
            <Array as="points">
              <mxPoint x="623" y="140" />
              <mxPoint x="660" y="140" />
            </Array>
          </mxGeometry>
        </mxCell>
        <mxCell id="2ZtT-Da5C00QiOGOJkK9-20" value="" style="edgeStyle=orthogonalEdgeStyle;rounded=1;orthogonalLoop=1;jettySize=auto;html=1;" edge="1" parent="1" source="2ZtT-Da5C00QiOGOJkK9-2" target="2ZtT-Da5C00QiOGOJkK9-19">
          <mxGeometry relative="1" as="geometry" />
        </mxCell>
        <mxCell id="2ZtT-Da5C00QiOGOJkK9-36" style="edgeStyle=orthogonalEdgeStyle;rounded=1;orthogonalLoop=1;jettySize=auto;html=1;exitX=0.25;exitY=1;exitDx=0;exitDy=0;" edge="1" parent="1" source="2ZtT-Da5C00QiOGOJkK9-2" target="2ZtT-Da5C00QiOGOJkK9-35">
          <mxGeometry relative="1" as="geometry" />
        </mxCell>
        <mxCell id="2ZtT-Da5C00QiOGOJkK9-2" value="Разновидности направлений маршрутов" style="whiteSpace=wrap;html=1;rounded=1;fillColor=#dae8fc;strokeColor=#6c8ebf;" vertex="1" parent="1">
          <mxGeometry x="510" y="100" width="150" height="30" as="geometry" />
        </mxCell>
        <mxCell id="2ZtT-Da5C00QiOGOJkK9-34" value="" style="edgeStyle=orthogonalEdgeStyle;rounded=1;orthogonalLoop=1;jettySize=auto;html=1;exitX=0.25;exitY=1;exitDx=0;exitDy=0;" edge="1" parent="1" source="2ZtT-Da5C00QiOGOJkK9-2" target="2ZtT-Da5C00QiOGOJkK9-33">
          <mxGeometry relative="1" as="geometry" />
        </mxCell>
        <mxCell id="2ZtT-Da5C00QiOGOJkK9-38" value="" style="edgeStyle=orthogonalEdgeStyle;rounded=0;orthogonalLoop=1;jettySize=auto;html=1;" edge="1" parent="1" source="2ZtT-Da5C00QiOGOJkK9-4" target="2ZtT-Da5C00QiOGOJkK9-37">
          <mxGeometry relative="1" as="geometry" />
        </mxCell>
        <mxCell id="2ZtT-Da5C00QiOGOJkK9-4" value="Именованные маршруты" style="whiteSpace=wrap;html=1;rounded=1;fillColor=#dae8fc;strokeColor=#6c8ebf;" vertex="1" parent="1">
          <mxGeometry x="600" y="160" width="120" height="32.5" as="geometry" />
        </mxCell>
        <mxCell id="2ZtT-Da5C00QiOGOJkK9-19" value="Получение полного списка маршрутов" style="whiteSpace=wrap;html=1;rounded=1;fontSize=12;fillColor=#f5f5f5;fontColor=#333333;strokeColor=#666666;" vertex="1" parent="1">
          <mxGeometry x="380" y="160" width="120" height="35" as="geometry" />
        </mxCell>
        <mxCell id="2ZtT-Da5C00QiOGOJkK9-23" style="edgeStyle=orthogonalEdgeStyle;rounded=0;orthogonalLoop=1;jettySize=auto;html=1;exitX=0;exitY=0.5;exitDx=0;exitDy=0;entryX=1;entryY=0.5;entryDx=0;entryDy=0;" edge="1" parent="1" source="2ZtT-Da5C00QiOGOJkK9-21" target="2ZtT-Da5C00QiOGOJkK9-2">
          <mxGeometry relative="1" as="geometry" />
        </mxCell>
        <mxCell id="2ZtT-Da5C00QiOGOJkK9-21" value="Создание контроллера" style="whiteSpace=wrap;html=1;fillColor=#dae8fc;strokeColor=#6c8ebf;rounded=1;" vertex="1" parent="1">
          <mxGeometry x="690" y="100" width="120" height="30" as="geometry" />
        </mxCell>
        <mxCell id="2ZtT-Da5C00QiOGOJkK9-29" value="&lt;b&gt;Уровень 0.&lt;/b&gt; &lt;br&gt;Создание &lt;br&gt;статических &lt;br&gt;страниц" style="text;html=1;strokeColor=none;fillColor=none;align=left;verticalAlign=middle;whiteSpace=wrap;rounded=0;fontSize=16;" vertex="1" parent="1">
          <mxGeometry x="320" y="30" width="110" height="100" as="geometry" />
        </mxCell>
        <mxCell id="2ZtT-Da5C00QiOGOJkK9-31" value="&lt;b&gt;Уровень 1.&lt;/b&gt;&amp;nbsp;&lt;br&gt;Добавление &lt;br&gt;логики реа-&lt;br&gt;гирования &lt;br&gt;на запросы" style="text;html=1;strokeColor=none;fillColor=none;align=left;verticalAlign=middle;whiteSpace=wrap;rounded=0;fontSize=16;" vertex="1" parent="1">
          <mxGeometry x="320" y="280" width="110" height="110" as="geometry" />
        </mxCell>
        <mxCell id="2ZtT-Da5C00QiOGOJkK9-33" value="Параметризованные&amp;nbsp; маршруты" style="whiteSpace=wrap;html=1;fillColor=#dae8fc;strokeColor=#6c8ebf;rounded=1;" vertex="1" parent="1">
          <mxGeometry x="481" y="300" width="132" height="40" as="geometry" />
        </mxCell>
        <mxCell id="2ZtT-Da5C00QiOGOJkK9-35" value="Фильтрация запросов по их HTTP-методу" style="whiteSpace=wrap;html=1;fillColor=#dae8fc;strokeColor=#6c8ebf;rounded=1;" vertex="1" parent="1">
          <mxGeometry x="621" y="300" width="132" height="40" as="geometry" />
        </mxCell>
        <mxCell id="2ZtT-Da5C00QiOGOJkK9-37" value="Создание шаблонов веб-страниц" style="whiteSpace=wrap;html=1;fillColor=#dae8fc;strokeColor=#6c8ebf;rounded=1;" vertex="1" parent="1">
          <mxGeometry x="752" y="158" width="120" height="36.25" as="geometry" />
        </mxCell>
      </root>
    </mxGraphModel>
  </diagram>
</mxfile>
